<svg xmlns="http://www.w3.org/2000/svg" viewBox="200 200 930 930" width="64" height="64">
  <rect x="200" y="200" width="930" height="930" rx="100" fill="#0a0f1c"/>
  <g transform="matrix(1.3333333,0,0,-1.3333333,0,1333.3333)">
    <g transform="scale(0.1)">
      <path fill="#fff" d="m 2858.96,6488.46 c 0,0 198.4,516.75 1324.62,962.98 1126.23,446.23 2528.6,340.57 3253.95,-70.26 725.35,-410.84 807.81,-752.25 554.5,-1110.14 -253.32,-357.89 -1241.27,-136.28 -1614.04,18.26 -813.98,337.46 -2589.48,1317.23 -3519.03,199.16"/>
      <path fill="#fff" d="m 7157.36,3495.22 c 0,0 -198.4,-516.75 -1324.62,-962.98 -1126.22,-446.24 -2528.6,-340.58 -3253.95,70.26 -725.35,410.84 -807.81,752.25 -554.49,1110.14 253.31,357.89 1241.26,136.28 1614.03,-18.26 813.98,-337.46 2589.49,-1317.24 3519.03,-199.16"/>
    </g>
  </g>
</svg>
